<svg width="22" height="24" viewBox="0 0 22 24" fill="none" xmlns="http://www.w3.org/2000/svg">
<path fill-rule="evenodd" clip-rule="evenodd" d="M2.25012 3.5C2.25012 3.16848 2.38182 2.85054 2.61624 2.61612C2.85066 2.3817 3.1686 2.25 3.50012 2.25H14.7501C15.0816 2.25 15.3996 2.3817 15.634 2.61612C15.8684 2.85054 16.0001 3.16848 16.0001 3.5V12.2844C16.4264 12.3313 16.8458 12.4272 17.2501 12.57V3.5C17.2501 2.83696 16.9867 2.20107 16.5179 1.73223C16.049 1.26339 15.4132 1 14.7501 1H3.50012C2.83708 1 2.2012 1.26339 1.73235 1.73223C1.26351 2.20107 1.00012 2.83696 1.00012 3.5V18.5C1.00012 19.163 1.26351 19.7989 1.73235 20.2678C2.2012 20.7366 2.83708 21 3.50012 21H10.697C10.4367 20.6111 10.2261 20.1912 10.0701 19.75H3.50012C3.1686 19.75 2.85066 19.6183 2.61624 19.3839C2.38182 19.1495 2.25012 18.8315 2.25012 18.5V3.5Z" fill="#9E9E9E" stroke="#9E9E9E"/>
<path fill-rule="evenodd" clip-rule="evenodd" d="M3.50012 6C3.50012 5.83424 3.56597 5.67527 3.68318 5.55806C3.80039 5.44085 3.95936 5.375 4.12512 5.375H14.1251C14.2909 5.375 14.4499 5.44085 14.5671 5.55806C14.6843 5.67527 14.7501 5.83424 14.7501 6C14.7501 6.16576 14.6843 6.32473 14.5671 6.44194C14.4499 6.55915 14.2909 6.625 14.1251 6.625H4.12512C3.95936 6.625 3.80039 6.55915 3.68318 6.44194C3.56597 6.32473 3.50012 6.16576 3.50012 6ZM3.50012 9.125C3.50012 8.95924 3.56597 8.80027 3.68318 8.68306C3.80039 8.56585 3.95936 8.5 4.12512 8.5H14.1251C14.2909 8.5 14.4499 8.56585 14.5671 8.68306C14.6843 8.80027 14.7501 8.95924 14.7501 9.125C14.7501 9.29076 14.6843 9.44973 14.5671 9.56694C14.4499 9.68415 14.2909 9.75 14.1251 9.75H4.12512C3.95936 9.75 3.80039 9.68415 3.68318 9.56694C3.56597 9.44973 3.50012 9.29076 3.50012 9.125ZM4.12512 11.625C3.95936 11.625 3.80039 11.6908 3.68318 11.8081C3.56597 11.9253 3.50012 12.0842 3.50012 12.25C3.50012 12.4158 3.56597 12.5747 3.68318 12.6919C3.80039 12.8092 3.95936 12.875 4.12512 12.875H9.12512C9.29088 12.875 9.44985 12.8092 9.56706 12.6919C9.68427 12.5747 9.75012 12.4158 9.75012 12.25C9.75012 12.0842 9.68427 11.9253 9.56706 11.8081C9.44985 11.6908 9.29088 11.625 9.12512 11.625H4.12512ZM3.50012 15.375C3.50012 15.2092 3.56597 15.0503 3.68318 14.9331C3.80039 14.8158 3.95936 14.75 4.12512 14.75H7.25012C7.41588 14.75 7.57485 14.8158 7.69206 14.9331C7.80927 15.0503 7.87512 15.2092 7.87512 15.375C7.87512 15.5408 7.80927 15.6997 7.69206 15.8169C7.57485 15.9342 7.41588 16 7.25012 16H4.12512C3.95936 16 3.80039 15.9342 3.68318 15.8169C3.56597 15.6997 3.50012 15.5408 3.50012 15.375ZM15.3751 22.25C15.9497 22.25 16.5186 22.1368 17.0494 21.917C17.5802 21.6971 18.0625 21.3748 18.4687 20.9686C18.875 20.5623 19.1972 20.08 19.4171 19.5492C19.637 19.0184 19.7501 18.4495 19.7501 17.875C19.7501 17.3005 19.637 16.7316 19.4171 16.2008C19.1972 15.67 18.875 15.1877 18.4687 14.7814C18.0625 14.3752 17.5802 14.0529 17.0494 13.833C16.5186 13.6132 15.9497 13.5 15.3751 13.5C14.2148 13.5 13.102 13.9609 12.2815 14.7814C11.4611 15.6019 11.0001 16.7147 11.0001 17.875C11.0001 19.0353 11.4611 20.1481 12.2815 20.9686C13.102 21.7891 14.2148 22.25 15.3751 22.25ZM15.3751 23.5C16.1138 23.5 16.8453 23.3545 17.5277 23.0718C18.2102 22.7891 18.8303 22.3748 19.3526 21.8525C19.8749 21.3301 20.2893 20.7101 20.5719 20.0276C20.8546 19.3451 21.0001 18.6137 21.0001 17.875C21.0001 17.1363 20.8546 16.4049 20.5719 15.7224C20.2893 15.0399 19.8749 14.4199 19.3526 13.8975C18.8303 13.3752 18.2102 12.9609 17.5277 12.6782C16.8453 12.3955 16.1138 12.25 15.3751 12.25C13.8833 12.25 12.4525 12.8426 11.3976 13.8975C10.3428 14.9524 9.75012 16.3832 9.75012 17.875C9.75012 19.3668 10.3428 20.7976 11.3976 21.8525C12.4525 22.9074 13.8833 23.5 15.3751 23.5Z" fill="#9E9E9E" stroke="#9E9E9E"/>
<path fill-rule="evenodd" clip-rule="evenodd" d="M17.8732 15.3925C17.756 15.2753 17.5971 15.2095 17.4314 15.2095C17.2656 15.2095 17.1067 15.2753 16.9895 15.3925L16.4957 15.8862L17.3789 16.7706L17.8732 16.2762C17.9904 16.159 18.0562 16.0001 18.0562 15.8343C18.0562 15.6686 17.9904 15.5097 17.8732 15.3925ZM16.9376 17.2125L16.0539 16.3287L12.8857 19.4968V20.3806H13.7695L16.9376 17.2125Z" fill="#9E9E9E" stroke="#9E9E9E"/>
</svg>
