<svg width="20" height="21" viewBox="0 0 20 21" fill="none" xmlns="http://www.w3.org/2000/svg">
<path d="M20.0009 3.08423C20.0018 2.47445 19.8216 1.87814 19.4832 1.37086C19.1448 0.863579 18.6635 0.468155 18.1002 0.234689C17.5368 0.00122282 16.9169 -0.0597784 16.3189 0.0594144C15.7209 0.178607 15.1717 0.47263 14.7409 0.904229L11.9309 3.71423L5.44092 1.55423C5.26812 1.49992 5.08382 1.49356 4.9077 1.53583C4.73157 1.5781 4.57024 1.66741 4.44092 1.79423L2.06091 4.15423C1.94814 4.26831 1.86447 4.40784 1.81696 4.56105C1.76945 4.71426 1.75949 4.87665 1.78792 5.03452C1.81636 5.19239 1.88236 5.3411 1.98034 5.4681C2.07833 5.5951 2.20543 5.69667 2.35091 5.76423L7.53091 8.11423L4.93091 10.7142L3.22091 9.85423C3.03629 9.75431 2.8249 9.71502 2.6167 9.74194C2.4085 9.76887 2.21405 9.86063 2.06091 10.0042L0.290915 11.8142C0.104664 12.0016 0.00012207 12.255 0.00012207 12.5192C0.00012207 12.7834 0.104664 13.0369 0.290915 13.2242L6.78091 19.7142C6.96828 19.9005 7.22173 20.005 7.48591 20.005C7.7501 20.005 8.00355 19.9005 8.19091 19.7142L10.0009 17.9442C10.151 17.7957 10.2502 17.6035 10.2843 17.3951C10.3185 17.1867 10.2858 16.9729 10.1909 16.7842L9.33091 15.0742L11.9309 12.4742L14.2809 17.6542C14.3485 17.7997 14.45 17.9268 14.577 18.0248C14.704 18.1228 14.8528 18.1888 15.0106 18.2172C15.1685 18.2457 15.3309 18.2357 15.4841 18.1882C15.6373 18.1407 15.7768 18.057 15.8909 17.9442L18.2509 15.5842C18.3777 15.4549 18.467 15.2936 18.5093 15.1174C18.5516 14.9413 18.5452 14.757 18.4909 14.5842L16.3309 8.09423L19.1009 5.26423C19.3881 4.97879 19.6156 4.63903 19.7702 4.26474C19.9247 3.89046 20.0031 3.48915 20.0009 3.08423ZM17.6809 3.85423L14.4409 7.09423C14.3141 7.22355 14.2248 7.38489 14.1825 7.56101C14.1402 7.73714 14.1466 7.92144 14.2009 8.09423L16.3609 14.5742L15.4609 15.4742L13.1109 10.3042C13.0442 10.1574 12.943 10.0289 12.8159 9.92962C12.6888 9.83037 12.5395 9.76333 12.3809 9.73423C12.221 9.70504 12.0563 9.71528 11.9013 9.76407C11.7462 9.81286 11.6053 9.89873 11.4909 10.0142L7.37091 14.1742C7.223 14.322 7.12512 14.5124 7.09104 14.7187C7.05696 14.925 7.08839 15.1367 7.18091 15.3242L8.00091 17.0042L7.44091 17.5642L2.41091 12.5242L3.00091 12.0042L4.71091 12.8642C4.8984 12.9568 5.11018 12.9882 5.31646 12.9541C5.52274 12.92 5.71315 12.8221 5.86092 12.6742L10.0009 8.51423C10.1158 8.40022 10.2013 8.26003 10.2501 8.10569C10.2989 7.95135 10.3095 7.78748 10.2809 7.62814C10.2524 7.46881 10.1856 7.31879 10.0864 7.19095C9.98707 7.06312 9.85823 6.96129 9.71091 6.89423L4.50091 4.54423L5.40092 3.64423L11.8809 5.80423C12.0537 5.85854 12.238 5.8649 12.4141 5.82263C12.5903 5.78036 12.7516 5.69105 12.8809 5.56423L16.1209 2.32423C16.2206 2.22233 16.3396 2.14137 16.4709 2.08609C16.6023 2.03082 16.7434 2.00234 16.8859 2.00234C17.0284 2.00234 17.1695 2.03082 17.3009 2.08609C17.4323 2.14137 17.5513 2.22233 17.6509 2.32423C17.7552 2.42087 17.8377 2.53865 17.8929 2.66971C17.9481 2.80076 17.9747 2.94208 17.9709 3.08423C17.9763 3.22543 17.9535 3.36628 17.9037 3.49851C17.8539 3.63075 17.7781 3.75169 17.6809 3.85423Z" fill="#9E9E9E"/>
</svg>
