<svg width="335" height="56" viewBox="0 0 335 56" fill="none" xmlns="http://www.w3.org/2000/svg">
<rect width="335" height="56" rx="16" fill="#2D1CC6"/>
<path d="M139.179 35.144C138.283 35.144 137.509 34.968 136.859 34.616C136.219 34.2533 135.733 33.7893 135.403 33.224C135.072 32.6587 134.907 32.0613 134.907 31.432V31.336H137.339V31.432C137.339 31.6987 137.403 31.9707 137.531 32.248C137.669 32.5147 137.877 32.7387 138.155 32.92C138.443 33.1013 138.795 33.192 139.211 33.192C139.733 33.192 140.155 33.0587 140.475 32.792C140.805 32.5253 140.971 32.168 140.971 31.72C140.971 31.336 140.832 31.032 140.555 30.808C140.288 30.5733 139.957 30.4187 139.563 30.344L138.203 30.056C137.499 29.9173 136.821 29.6187 136.171 29.16C135.52 28.6907 135.195 27.928 135.195 26.872C135.195 26.1893 135.36 25.6027 135.691 25.112C136.021 24.6107 136.48 24.232 137.067 23.976C137.653 23.7093 138.32 23.576 139.067 23.576C139.92 23.576 140.651 23.7413 141.259 24.072C141.877 24.4027 142.341 24.8293 142.651 25.352C142.971 25.8747 143.131 26.4293 143.131 27.016V27.08H140.699V27.032C140.699 26.648 140.56 26.2907 140.283 25.96C140.016 25.6187 139.584 25.448 138.987 25.448C138.496 25.448 138.112 25.5813 137.835 25.848C137.557 26.104 137.419 26.4347 137.419 26.84C137.419 27.224 137.557 27.528 137.835 27.752C138.123 27.976 138.475 28.1307 138.891 28.216L140.235 28.504C141.056 28.6853 141.771 29.0213 142.379 29.512C142.987 30.0027 143.291 30.7227 143.291 31.672C143.291 32.3547 143.115 32.9627 142.763 33.496C142.411 34.0187 141.92 34.424 141.291 34.712C140.672 35 139.968 35.144 139.179 35.144ZM148.563 35.128C147.678 35.128 146.931 34.9307 146.323 34.536C145.726 34.1307 145.278 33.5973 144.979 32.936C144.68 32.2747 144.531 31.5493 144.531 30.76C144.531 29.9707 144.675 29.2453 144.963 28.584C145.262 27.912 145.715 27.3733 146.323 26.968C146.931 26.5627 147.678 26.36 148.563 26.36C149.448 26.36 150.195 26.5627 150.803 26.968C151.411 27.3627 151.864 27.8907 152.163 28.552C152.462 29.2133 152.611 29.9387 152.611 30.728C152.611 31.5173 152.462 32.248 152.163 32.92C151.864 33.5813 151.411 34.1147 150.803 34.52C150.195 34.9253 149.448 35.128 148.563 35.128ZM148.563 33.336C149.182 33.336 149.646 33.0907 149.955 32.6C150.275 32.0987 150.435 31.4747 150.435 30.728C150.435 29.9813 150.275 29.368 149.955 28.888C149.646 28.3973 149.182 28.152 148.563 28.152C147.944 28.152 147.48 28.3973 147.171 28.888C146.862 29.368 146.707 29.9813 146.707 30.728C146.707 31.4747 146.862 32.0987 147.171 32.6C147.491 33.0907 147.955 33.336 148.563 33.336ZM156.882 35.064C156.092 35.064 155.506 34.9467 155.122 34.712C154.748 34.4667 154.514 34.168 154.418 33.816C154.332 33.4533 154.29 32.9947 154.29 32.44V23H156.498V31.992C156.498 32.376 156.514 32.664 156.546 32.856C156.588 33.0373 156.695 33.1867 156.866 33.304C157.047 33.4107 157.33 33.464 157.714 33.464C157.842 33.464 157.991 33.4533 158.162 33.432V34.968C157.618 35.032 157.191 35.064 156.882 35.064ZM159.887 26.552H162.095V35H159.887V26.552ZM160.975 25.096C160.623 25.096 160.329 24.9787 160.095 24.744C159.86 24.4987 159.743 24.2053 159.743 23.864C159.743 23.512 159.86 23.2187 160.095 22.984C160.329 22.7493 160.623 22.632 160.975 22.632C161.327 22.632 161.62 22.7547 161.855 23C162.089 23.2347 162.207 23.5227 162.207 23.864C162.207 24.2053 162.089 24.4987 161.855 24.744C161.62 24.9787 161.327 25.096 160.975 25.096ZM167.97 35.144C167.074 35.144 166.322 34.936 165.714 34.52C165.106 34.104 164.652 33.56 164.354 32.888C164.066 32.216 163.922 31.496 163.922 30.728C163.922 29.9707 164.066 29.2613 164.354 28.6C164.652 27.928 165.106 27.384 165.714 26.968C166.322 26.552 167.074 26.344 167.97 26.344C169.1 26.344 169.991 26.6693 170.642 27.32C171.303 27.96 171.703 28.7707 171.842 29.752H169.682C169.607 29.272 169.426 28.888 169.138 28.6C168.86 28.3013 168.476 28.152 167.986 28.152C167.335 28.152 166.855 28.4027 166.546 28.904C166.247 29.4053 166.098 30.0133 166.098 30.728C166.098 31.464 166.247 32.0827 166.546 32.584C166.855 33.0853 167.335 33.336 167.986 33.336C168.466 33.336 168.85 33.192 169.138 32.904C169.426 32.6053 169.607 32.216 169.682 31.736H171.842C171.703 32.7173 171.303 33.5333 170.642 34.184C169.991 34.824 169.1 35.144 167.97 35.144ZM173.606 26.552H175.814V35H173.606V26.552ZM174.694 25.096C174.342 25.096 174.048 24.9787 173.814 24.744C173.579 24.4987 173.462 24.2053 173.462 23.864C173.462 23.512 173.579 23.2187 173.814 22.984C174.048 22.7493 174.342 22.632 174.694 22.632C175.046 22.632 175.339 22.7547 175.574 23C175.808 23.2347 175.926 23.5227 175.926 23.864C175.926 24.2053 175.808 24.4987 175.574 24.744C175.339 24.9787 175.046 25.096 174.694 25.096ZM181.064 28.28V32.04C181.064 32.4133 181.08 32.6907 181.112 32.872C181.155 33.0533 181.262 33.1973 181.432 33.304C181.603 33.4107 181.88 33.464 182.264 33.464C182.488 33.464 182.718 33.4427 182.952 33.4V34.936C182.835 34.9573 182.622 34.984 182.312 35.016C182.014 35.048 181.72 35.064 181.432 35.064C180.654 35.064 180.072 34.952 179.688 34.728C179.315 34.4933 179.08 34.2053 178.984 33.864C178.888 33.512 178.84 33.064 178.84 32.52V28.28H177.432V26.552H178.856V23.8H181.064V26.552H182.952V28.28H181.064ZM187.623 35.128C186.577 35.128 185.761 34.728 185.175 33.928C184.588 33.128 184.295 32.072 184.295 30.76C184.295 29.4267 184.588 28.36 185.175 27.56C185.772 26.7493 186.604 26.344 187.671 26.344C188.385 26.344 188.945 26.5093 189.351 26.84C189.756 27.16 190.044 27.5013 190.215 27.864H190.343V26.552H192.567V35H190.343V33.544H190.215C190.023 33.9387 189.724 34.3013 189.319 34.632C188.913 34.9627 188.348 35.128 187.623 35.128ZM188.439 33.336C189.068 33.336 189.543 33.08 189.863 32.568C190.183 32.056 190.343 31.4427 190.343 30.728C190.343 30.0133 190.183 29.4053 189.863 28.904C189.553 28.4027 189.079 28.152 188.439 28.152C187.799 28.152 187.324 28.4027 187.015 28.904C186.705 29.4053 186.551 30.0133 186.551 30.728C186.551 31.4533 186.705 32.072 187.015 32.584C187.324 33.0853 187.799 33.336 188.439 33.336ZM194.57 26.552H196.762V27.896H196.874C197.012 27.5227 197.268 27.208 197.642 26.952C198.015 26.6853 198.495 26.552 199.082 26.552C199.306 26.552 199.498 26.5733 199.658 26.616L199.562 28.648C199.295 28.5733 199.012 28.536 198.714 28.536C198.052 28.536 197.562 28.712 197.242 29.064C196.922 29.4053 196.762 29.976 196.762 30.776V35H194.57V26.552Z" fill="white"/>
</svg>
