<svg width="30" height="30" viewBox="0 0 30 30" fill="none" xmlns="http://www.w3.org/2000/svg">
<path d="M25.3126 8.67188H6.56262C6.25182 8.67188 5.95375 8.54841 5.73398 8.32864C5.51421 8.10887 5.39075 7.8108 5.39075 7.5C5.39075 7.1892 5.51421 6.89113 5.73398 6.67136C5.95375 6.45159 6.25182 6.32812 6.56262 6.32812H22.5001C22.6866 6.32812 22.8654 6.25405 22.9973 6.12218C23.1292 5.99032 23.2032 5.81148 23.2032 5.625C23.2032 5.43852 23.1292 5.25968 22.9973 5.12782C22.8654 4.99595 22.6866 4.92188 22.5001 4.92188H6.56262C5.87886 4.92188 5.2231 5.1935 4.73961 5.67699C4.25612 6.16048 3.9845 6.81624 3.9845 7.5V22.5C3.9845 23.1838 4.25612 23.8395 4.73961 24.323C5.2231 24.8065 5.87886 25.0781 6.56262 25.0781H25.3126C25.7477 25.0781 26.165 24.9053 26.4727 24.5976C26.7804 24.2899 26.9532 23.8726 26.9532 23.4375V10.3125C26.9532 9.87738 26.7804 9.46008 26.4727 9.1524C26.165 8.84473 25.7477 8.67188 25.3126 8.67188ZM25.547 23.4375C25.547 23.4997 25.5223 23.5593 25.4783 23.6032C25.4344 23.6472 25.3748 23.6719 25.3126 23.6719H6.56262C6.25182 23.6719 5.95375 23.5484 5.73398 23.3286C5.51421 23.1089 5.39075 22.8108 5.39075 22.5V9.7957C5.75332 9.9818 6.15508 10.0786 6.56262 10.0781H25.3126C25.3748 10.0781 25.4344 10.1028 25.4783 10.1468C25.5223 10.1907 25.547 10.2503 25.547 10.3125V23.4375ZM22.2657 16.4062C22.2657 16.638 22.197 16.8646 22.0683 17.0573C21.9395 17.25 21.7565 17.4002 21.5423 17.4889C21.3282 17.5776 21.0926 17.6008 20.8653 17.5556C20.6379 17.5104 20.4291 17.3988 20.2652 17.2349C20.1013 17.071 19.9897 16.8622 19.9445 16.6349C19.8993 16.4075 19.9225 16.1719 20.0112 15.9578C20.0999 15.7437 20.2501 15.5606 20.4428 15.4319C20.6355 15.3031 20.8621 15.2344 21.0939 15.2344C21.4047 15.2344 21.7027 15.3578 21.9225 15.5776C22.1423 15.7974 22.2657 16.0954 22.2657 16.4062Z" fill="#9E9E9E" stroke="#9E9E9E" stroke-width="0.5"/>
</svg>
